<svg width="133" height="21" viewBox="0 0 133 21" fill="none" xmlns="http://www.w3.org/2000/svg">
<path fill-rule="evenodd" clip-rule="evenodd" d="M92.1816 0.664001H75.2869C74.5128 0.664001 73.8838 1.30178 73.8838 2.08472V18.9486C73.8838 19.7315 74.5128 20.3693 75.2869 20.3693H92.1816C92.9557 20.3693 93.5891 19.7315 93.5891 18.9486V2.08472C93.5891 1.30178 92.9557 0.664001 92.1816 0.664001ZM79.8394 17.5543H76.9187V8.15026H79.8438V17.5543H79.8394ZM78.3791 6.86589C77.4422 6.86589 76.6856 6.10496 76.6856 5.17246C76.6856 4.23998 77.4422 3.47904 78.3791 3.47904C79.3116 3.47904 80.0726 4.23998 80.0726 5.17246C80.0726 6.10935 79.316 6.86589 78.3791 6.86589ZM90.7872 17.5543H87.8666V12.9798C87.8666 11.889 87.8446 10.4859 86.3491 10.4859C84.8273 10.4859 84.5941 11.6735 84.5941 12.9006V17.5543H81.6735V8.15025H84.4754V9.43461H84.515C84.9064 8.69566 85.8609 7.91713 87.2816 7.91713C90.2374 7.91713 90.7872 9.86568 90.7872 12.3992L90.7872 17.5543Z" fill="white"/>
<path d="M130.685 6.62934C130.7 6.82938 130.7 7.02947 130.7 7.22952C130.7 13.3311 126.056 20.3617 117.568 20.3617C114.953 20.3617 112.523 19.6043 110.48 18.2897C110.852 18.3325 111.209 18.3468 111.595 18.3468C113.752 18.3468 115.739 17.6181 117.325 16.3749C115.296 16.332 113.595 15.0031 113.009 13.174C113.295 13.2168 113.581 13.2454 113.881 13.2454C114.295 13.2454 114.71 13.1882 115.096 13.0883C112.981 12.6595 111.394 10.8019 111.394 8.55843V8.50129C112.009 8.84425 112.723 9.05859 113.481 9.08712C112.238 8.25834 111.423 6.84365 111.423 5.24323C111.423 4.38586 111.652 3.59995 112.052 2.91404C114.324 5.71478 117.739 7.54382 121.569 7.74393C121.497 7.40097 121.454 7.04377 121.454 6.68653C121.454 4.14295 123.512 2.07098 126.07 2.07098C127.399 2.07098 128.599 2.62827 129.442 3.52851C130.485 3.32846 131.486 2.94263 132.372 2.4139C132.029 3.48566 131.3 4.38592 130.342 4.95744C131.271 4.85746 132.172 4.60019 133 4.24299C132.372 5.1575 131.586 5.97198 130.685 6.62933L130.685 6.62934Z" fill="white"/>
<path d="M18.2869 0.664011H2.80415C1.63812 0.664011 0.692871 1.60926 0.692871 2.77529V18.258C0.692871 19.4241 1.63812 20.3693 2.80415 20.3693H8.8411V13.67H6.07004V10.5167H8.8411V8.11331C8.8411 5.37963 10.4686 3.86963 12.9612 3.86963C14.1549 3.86963 15.4032 4.08253 15.4032 4.08253V6.7656H14.0278C12.6726 6.7656 12.25 7.6066 12.25 8.46914V10.5167H15.2752L14.7914 13.6699H12.2499V20.3693H18.2869C19.4529 20.3693 20.3982 19.4241 20.3982 18.258V2.77528C20.3982 1.60925 19.4529 0.664001 18.2869 0.664001L18.2869 0.664011Z" fill="white"/>
<path fill-rule="evenodd" clip-rule="evenodd" d="M47.1439 5.46338C44.348 5.46338 42.0929 7.71857 42.0929 10.5145C42.0929 13.3104 44.348 15.5656 47.1439 15.5656C49.9398 15.5656 52.195 13.3104 52.195 10.5145C52.195 7.71856 49.9398 5.46338 47.1439 5.46338ZM47.1439 13.7983C45.3371 13.7983 43.8601 12.3256 43.8601 10.5145C43.8601 8.70328 45.3327 7.23061 47.1439 7.23061C48.9551 7.23061 50.4278 8.70327 50.4278 10.5145C50.4278 12.3256 48.9507 13.7983 47.1439 13.7983ZM53.5797 5.25677C53.5797 5.91181 53.0522 6.43493 52.4016 6.43493C51.7466 6.43493 51.2234 5.90739 51.2234 5.25677C51.2234 4.60615 51.751 4.07865 52.4016 4.07865C53.0522 4.07865 53.5797 4.60615 53.5797 5.25677ZM56.925 6.45251C56.8503 4.87432 56.4898 3.47637 55.3337 2.32461C54.1819 1.17284 52.784 0.812361 51.2058 0.733241C49.5793 0.640921 44.7041 0.640921 43.0775 0.733241C41.5037 0.807961 40.1058 1.16844 38.9497 2.3202C37.7935 3.47197 37.4374 4.86992 37.3583 6.44812C37.266 8.07463 37.266 12.9499 37.3583 14.5764C37.433 16.1546 37.7935 17.5526 38.9497 18.7043C40.1058 19.8561 41.4994 20.2166 43.0775 20.2957C44.7041 20.388 49.5793 20.388 51.2058 20.2957C52.784 20.221 54.1819 19.8605 55.3337 18.7043C56.4854 17.5526 56.8459 16.1546 56.925 14.5764C57.0173 12.9499 57.0173 8.07905 56.925 6.45251ZM54.8238 16.3216C54.4809 17.1833 53.8171 17.8471 52.9511 18.1944C51.6543 18.7087 48.577 18.59 47.1439 18.59C45.7108 18.59 42.6292 18.7043 41.3367 18.1944C40.4751 17.8515 39.8113 17.1877 39.464 16.3216C38.9497 15.0248 39.0684 11.9476 39.0684 10.5145C39.0684 9.08135 38.9541 5.99971 39.464 4.70728C39.8069 3.84564 40.4707 3.18184 41.3367 2.83456C42.6336 2.32021 45.7108 2.43892 47.1439 2.43892C48.577 2.43892 51.6587 2.32462 52.9511 2.83456C53.8127 3.17744 54.4765 3.84126 54.8238 4.70728C55.3382 6.00411 55.2195 9.08135 55.2195 10.5145C55.2195 11.9476 55.3382 15.0292 54.8238 16.3216Z" fill="white"/>
</svg>
