<svg width="135" height="25" viewBox="0 0 135 25" fill="none" xmlns="http://www.w3.org/2000/svg">
<g clip-path="url(#clip0)">
<g clip-path="url(#clip1)">
<path d="M17.6102 21.082L0 21.082L0 17.7619L17.6102 17.7619V21.082Z" fill="white"/>
<path d="M17.6102 6.61664L11.4215 9.08169C8.67911 10.1882 5.30813 11.169 5.30813 11.169C5.30813 11.169 9.86166 10.7169 11.5974 10.7169L17.6102 10.7169V13.9868L0 13.9868L0 10.7918L6.21394 8.35239C9.00649 7.24562 12.1257 6.46545 12.1257 6.46545C12.1257 6.46545 7.89955 6.94301 5.73559 6.94301L0 6.94301L0 3.67428L17.6102 3.67428L17.6102 6.61664Z" fill="white"/>
</g>
<g clip-path="url(#clip2)">
<path d="M30.6351 6.34048H27.364L27.364 21.1812H24.0945L24.0945 6.34048H20.4458V3.57379L31.0126 3.57379L30.6351 6.34048Z" fill="white"/>
<path d="M40.5752 6.29033L35.6684 6.29033V10.6166L40.0719 10.6166V13.0819L35.6684 13.0819V18.4649H40.701V21.1812H32.3989V3.57379H40.827L40.5752 6.29033Z" fill="white"/>
<path fill-rule="evenodd" clip-rule="evenodd" d="M50.036 21.1812L49.3311 17.1817C49.0548 15.6475 48.6775 14.3646 48.0729 13.786L46.7401 13.8868V21.1812H43.4697V3.57379H47.9225C51.0925 3.57379 53.2807 4.55457 53.2807 8.47844C53.2807 11.0191 52.1995 12.4028 50.6149 13.1321C51.5959 13.5595 52.1493 14.9936 52.5012 16.5784L53.5323 21.1812L50.036 21.1812ZM47.7465 6.06378H46.7401V11.6229C49.1552 11.4971 50.0113 11.0697 50.0113 8.47844C50.0113 6.39088 49.2564 6.06379 47.7465 6.06379L47.7465 6.06378Z" fill="white"/>
</g>
<g clip-path="url(#clip3)">
<path d="M71.875 3.57379L71.2714 21.1812H68.2527L64.7053 12.5036L61.1834 21.1812H58.139L57.5356 3.57379H60.7813L60.9316 10.7172C60.9817 12.8304 60.6556 16.3768 60.6556 16.3768C60.6556 16.3768 61.5854 13.7611 62.2145 12.4028L64.7053 7.0201L67.0958 12.2518C67.7741 13.7109 68.7059 16.3267 68.7059 16.3267C68.7059 16.3267 68.4286 13.0819 68.4798 10.8938L68.6302 3.57379H71.875Z" fill="white"/>
<path d="M78.8484 3.57379V21.1812H75.5278V3.57379H78.8484Z" fill="white"/>
</g>
<g clip-path="url(#clip4)">
<path d="M99.3647 17.1148L93.4512 19.47C90.8308 20.5276 87.6096 21.4647 87.6096 21.4647C87.6096 21.4647 91.9605 21.0327 93.6192 21.0327H99.3647V24.1562L82.5376 24.1562V21.104L88.475 18.7733C91.1435 17.7157 94.1242 16.9701 94.1242 16.9701C94.1242 16.9701 90.0858 17.4266 88.018 17.4266H82.5376V14.3021L99.3647 14.3021L99.3647 17.1148Z" fill="white"/>
<path fill-rule="evenodd" clip-rule="evenodd" d="M99.3647 3.91582L95.8552 4.56496V8.4106L99.3647 9.0595V12.3765L82.5376 8.24237V4.73295L99.3647 0.599105V3.91582ZM88.8358 5.74253C87.2008 6.0317 84.1963 6.48814 84.1963 6.48814C84.1963 6.48814 87.2008 6.9201 88.8358 7.20951L93.499 8.02639V4.94988L88.8358 5.74253Z" fill="white"/>
</g>
<g clip-path="url(#clip5)">
<path fill-rule="evenodd" clip-rule="evenodd" d="M108.503 21.1816H104.05V3.57428H108.503C112.025 3.57428 113.611 4.93254 113.611 8.05153C113.611 10.6678 112.277 11.6486 110.843 12.026C112.528 12.3526 114.114 13.3841 114.114 16.1258C114.114 19.9494 112.252 21.1816 108.503 21.1816H108.503ZM108.201 5.91333H107.321V10.9944H108C109.736 10.9944 110.339 10.2396 110.339 8.17728C110.339 6.19003 109.56 5.91333 108.201 5.91333ZM108 13.2583H107.321V18.8426H108.428C109.811 18.8426 110.843 18.3895 110.843 16.1512C110.843 13.8873 109.988 13.2583 108 13.2583Z" fill="white"/>
<path d="M123.928 21.1816H117.135V3.57428H120.405V18.4401H124.305L123.928 21.1816Z" fill="white"/>
<path d="M134.748 6.29082L129.841 6.29082V10.6171L134.244 10.6171V13.0824L129.841 13.0824V18.4653H134.873V21.1816H126.571V3.57428H134.999L134.748 6.29082Z" fill="white"/>
</g>
</g>
<defs>
<clipPath id="clip0">
<rect width="135" height="23.5574" fill="white" transform="translate(0 0.599121)"/>
</clipPath>
<clipPath id="clip1">
<rect width="17.4075" height="17.6102" fill="white" transform="translate(0 21.082) rotate(-90)"/>
</clipPath>
<clipPath id="clip2">
<rect width="17.6074" height="33.0866" fill="white" transform="translate(20.4458 21.1812) rotate(-90)"/>
</clipPath>
<clipPath id="clip3">
<rect width="17.6074" height="21.3126" fill="white" transform="translate(57.5356 21.1812) rotate(-90)"/>
</clipPath>
<clipPath id="clip4">
<rect width="23.5574" height="16.8271" fill="white" transform="translate(82.5376 24.1562) rotate(-90)"/>
</clipPath>
<clipPath id="clip5">
<rect width="17.6074" height="30.9491" fill="white" transform="translate(104.05 21.1816) rotate(-90)"/>
</clipPath>
</defs>
</svg>
