<svg xmlns="http://www.w3.org/2000/svg" width="148" height="22.043" viewBox="0 0 148 22.043">
  <g id="Grupo_98" data-name="Grupo 98" transform="translate(1240 -3070)">
    <path id="brand_linkedin" data-name="brand linkedin" d="M20.468,32H1.57A1.581,1.581,0,0,0,0,33.589V52.453a1.581,1.581,0,0,0,1.57,1.589h18.9a1.585,1.585,0,0,0,1.574-1.589V33.589A1.585,1.585,0,0,0,20.468,32ZM6.662,50.894H3.395V40.374H6.667V50.894ZM5.028,38.937a1.894,1.894,0,1,1,1.894-1.894A1.9,1.9,0,0,1,5.028,38.937Zm13.88,11.956H15.641V45.777c0-1.22-.025-2.79-1.7-2.79-1.7,0-1.963,1.328-1.963,2.7v5.206H8.714V40.374h3.134v1.437h.044a3.441,3.441,0,0,1,3.095-1.7c3.306,0,3.921,2.18,3.921,5.014Z" transform="translate(-1158.128 3038)"/>
    <path id="brand_twitter" data-name="brand twitter" d="M22.6,53.181c.016.224.016.448.016.671a14.589,14.589,0,0,1-14.69,14.69A14.59,14.59,0,0,1,0,66.224a10.686,10.686,0,0,0,1.247.064,10.34,10.34,0,0,0,6.41-2.206A5.172,5.172,0,0,1,2.829,60.5a6.51,6.51,0,0,0,.975.08,5.46,5.46,0,0,0,1.359-.176,5.164,5.164,0,0,1-4.14-5.067v-.064a5.2,5.2,0,0,0,2.334.655,5.171,5.171,0,0,1-1.6-6.905,14.676,14.676,0,0,0,10.646,5.4,5.829,5.829,0,0,1-.128-1.183,5.168,5.168,0,0,1,8.935-3.533,10.165,10.165,0,0,0,3.277-1.247,5.149,5.149,0,0,1-2.27,2.845,10.35,10.35,0,0,0,2.973-.8A11.1,11.1,0,0,1,22.6,53.181Z" transform="translate(-1117.192 3023.492)"/>
    <path id="brand_facebook-square" data-name="brand facebook-square" d="M19.681,32H2.362A2.362,2.362,0,0,0,0,34.362V51.681a2.362,2.362,0,0,0,2.362,2.362H9.115V46.549h-3.1V43.021h3.1V40.333c0-3.058,1.82-4.747,4.609-4.747a18.777,18.777,0,0,1,2.732.238v3H14.917a1.764,1.764,0,0,0-1.989,1.906v2.29h3.384l-.541,3.527H12.928v7.494h6.753a2.362,2.362,0,0,0,2.362-2.362V34.362A2.362,2.362,0,0,0,19.681,32Z" transform="translate(-1240 3038)"/>
    <path id="brand_instagram" data-name="brand instagram" d="M10.949,37.194a5.65,5.65,0,1,0,5.65,5.65A5.641,5.641,0,0,0,10.949,37.194Zm0,9.324a3.673,3.673,0,1,1,3.673-3.673A3.68,3.68,0,0,1,10.949,46.517Zm7.2-9.555a1.318,1.318,0,1,1-1.318-1.318A1.315,1.315,0,0,1,18.148,36.963ZM21.89,38.3a6.522,6.522,0,0,0-1.78-4.618,6.565,6.565,0,0,0-4.618-1.78c-1.819-.1-7.273-.1-9.092,0a6.555,6.555,0,0,0-4.617,1.775A6.543,6.543,0,0,0,0,38.3c-.1,1.819-.1,7.273,0,9.092a6.522,6.522,0,0,0,1.78,4.617A6.573,6.573,0,0,0,6.4,53.785c1.819.1,7.273.1,9.092,0a6.522,6.522,0,0,0,4.618-1.78,6.565,6.565,0,0,0,1.78-4.617C21.993,45.568,21.993,40.12,21.89,38.3ZM19.54,49.34a3.719,3.719,0,0,1-2.095,2.095c-1.451.575-4.893.443-6.5.443s-5.05.128-6.5-.443A3.719,3.719,0,0,1,2.358,49.34c-.575-1.451-.443-4.893-.443-6.5s-.128-5.05.443-6.5a3.719,3.719,0,0,1,2.095-2.095c1.451-.575,4.893-.443,6.5-.443s5.05-.128,6.5.443a3.719,3.719,0,0,1,2.095,2.095c.575,1.451.443,4.893.443,6.5S20.115,47.894,19.54,49.34Z" transform="translate(-1198.989 3038.175)"/>
  </g>
</svg>
